<mxfile host="65bd71144e">
    <diagram id="HIP3nbAZw_EuaXWnEj3U" name="Page-1">
        <mxGraphModel dx="1086" dy="694" grid="1" gridSize="10" guides="1" tooltips="1" connect="1" arrows="1" fold="1" page="1" pageScale="1" pageWidth="850" pageHeight="1100" math="0" shadow="0">
            <root>
                <mxCell id="0"/>
                <mxCell id="1" parent="0"/>
                <mxCell id="9" value="http://ics2o.mths.ca" style="swimlane;whiteSpace=wrap;html=1;" vertex="1" parent="1">
                    <mxGeometry x="40" y="230" width="1124" height="523" as="geometry"/>
                </mxCell>
                <mxCell id="10" value="&lt;span style=&quot;font-size: 18px;&quot;&gt;Triangle type with JS&lt;/span&gt;" style="rounded=0;whiteSpace=wrap;html=1;" vertex="1" parent="9">
                    <mxGeometry y="20" width="760" height="60" as="geometry"/>
                </mxCell>
                <mxCell id="12" value="" style="rounded=1;whiteSpace=wrap;html=1;fontSize=18;" vertex="1" parent="9">
                    <mxGeometry x="26" y="200" width="164" height="30" as="geometry"/>
                </mxCell>
                <mxCell id="13" value="Angle 1&amp;nbsp;" style="text;html=1;align=center;verticalAlign=middle;resizable=0;points=[];autosize=1;strokeColor=none;fillColor=none;fontSize=18;" vertex="1" parent="9">
                    <mxGeometry x="15" y="90" width="90" height="40" as="geometry"/>
                </mxCell>
                <mxCell id="14" value="Calculate" style="rounded=1;whiteSpace=wrap;html=1;fontSize=18;" vertex="1" parent="9">
                    <mxGeometry x="26" y="320" width="120" height="45" as="geometry"/>
                </mxCell>
                <mxCell id="15" value="This is a scalene triangle" style="text;html=1;align=center;verticalAlign=middle;resizable=0;points=[];autosize=1;strokeColor=none;fillColor=none;fontSize=18;" vertex="1" parent="9">
                    <mxGeometry x="46" y="380" width="220" height="40" as="geometry"/>
                </mxCell>
                <mxCell id="22" value="" style="rounded=1;whiteSpace=wrap;html=1;fontSize=18;" vertex="1" parent="9">
                    <mxGeometry x="26" y="270" width="164" height="30" as="geometry"/>
                </mxCell>
                <mxCell id="24" value="Angle 2&amp;nbsp;" style="text;html=1;align=center;verticalAlign=middle;resizable=0;points=[];autosize=1;strokeColor=none;fillColor=none;fontSize=18;" vertex="1" parent="9">
                    <mxGeometry x="15" y="160" width="90" height="40" as="geometry"/>
                </mxCell>
                <mxCell id="25" value="Angle 3" style="text;html=1;align=center;verticalAlign=middle;resizable=0;points=[];autosize=1;strokeColor=none;fillColor=none;fontSize=18;" vertex="1" parent="9">
                    <mxGeometry x="20" y="230" width="80" height="40" as="geometry"/>
                </mxCell>
                <mxCell id="26" value="" style="shape=image;verticalLabelPosition=bottom;labelBackgroundColor=default;verticalAlign=top;aspect=fixed;imageAspect=0;image=data:image/png,iVBORw0KGgoAAAANSUhEUgAABAAAAAIfCAMAAADZk17FAAAABGdBTUEAALGPC/xhBQAAAAFzUkdCAK7OHOkAAAClUExURf///zhdigAAAPHw8ABmtrZmA2uHqUhplld4n7zJ2Pb3+MrV4o+mvd3j6v//25ywyAAAZnmSsLb//9v//4Wbtq++0UBljwAAOjoAAIs5Bufr8ae3y/+2ZkaQ28rd8O/y9v/bkP4EBGYAABA6jpDb/dGQS///tvv8/VNITxsbG2a29Cw3KnFxcdu2dK2jo//axftmZ/+4uP4uL5JlQH+kzv6am9PTzqSnq2kAABwsSURBVHja7J1rb6pKFIZFEwGBGBMl2Rol/YSmpheP7f//aWcGUBGocneA50nO6W63abtH1ppZ77yzZjQCAAAAAAAAAAAAAAAAAAAAAAAAAAAAAAAAAAAAAAAAAAAAAAAAAAAAAAAAAAAAAAAAAAAAAAAAAAAAAAAAAAAAAAAAAAAAAAAAAAAAAAAAAAAAAAAAAAAAAAAAAAAAAAAAAAAAAAAAAAAAAAAAAAAAAAAAAIBhMFvoJqMAMEwcQ9MMhgFgkFiuJpgxEAADZKMFWIwEwPCwRfDrU01bMRQAQ8NfivifrsUqYMlgAAyMtZj6tcVoZIkswGgADAtLF/Fviz94muYyHACDwpTiX1j7i0zgMCAAA2Iuwt+NxP+FpmEFAhgQUv4zHD/8xA5LAQAYBLNA/pvFqoEFgwIwEKT7N77z52iazqgADANTun838a+IL0wYF4AhELh/TT/+JVERWD4jU5G5NmcQQHWk+9dIeP+XGs9uZSyNzRRQHX8RuH8TX12hAlZHCiucqwalCdy/aeP/jke3hgJAS0orAIqtUqX7d56u9n3xZTSAaqlVbqyK/9YMBajK6ub+TS9fd4xPFUTwT/0ppRSovUjVs9X+BS0BqiFPVlg+OiCoS+j+zf47WgJUxAgHcImYAmri3bt/k+IALQGqLq5cT46yzoYqKIgfuH//PvGzpiVAFZyrtiJdVhytBuVK1MD9+0DopyVAFRa3BRQ6IKhH6P598gijXpVOr7G+yuiAoByB+3f37CW0BCiLER88Gx0Q1Kr/M92/6UmMlWtJ5pqme9fP0AFBKZxs92/yVbQEKD3ACXfVCh0Q1CF0/z5/natpHqNVhqsCeBlldEBQhr/dvwmm3A9WrsCSCmCor2jRl3bogKBOearpuQJ7yUm2cglAvyqAVyeFLQads1XwegL37zrXs0hLgHLIYI/8lZcVwGims6cCryd0/+aciix2r8oQVwC1u8ILHRBey+6x+ze5lKUlQBnigl/MTL3gbAW8GLNggxqDSas4q5gHMLYCMA2N89XwUqT71y2iRdMSoDiBArhwkglgs3Vi0gBA+9gPDv9nM0e4KjPKhm9uV368BLDOZ2/kGwwnvIxZ4P6dFKrpZUsARIBChBv+vnPenp1oBeCZ5628cyFmDwBomeTVX7mgJUBhppdNFme+nZ7P7vwsPli3kgodEF5BXvdvAp2WtsW42+xb70x3ZTnXNZTvoAPCy57LMo/eFANrsTpLv2ux7sd2AQLm6IDwAvK7fxPYHGMtgp86+J+ooNAB4QXkOfyfDS0BihVaqSM/WnpAOWAFrbIu4v5NQEuAohVTIl+6GckYHTAPnq1PKT/rmJUKuX+T0BKgABntf7WMlMoRyzzhL1vWagaSaVXMatdTGqxY8z+0bloxSSWA63UB8GAk50H4kwLqmZTcCispWgIUGqubArg+Ho6i7LL348OH+PQYfohyKjcuPWIWhv90FX7UN3jRSlPc/ZtgxdOau9aKK4C/h/A4wPtx9DE2R+bed95jazJWVc/C3zBHvviztK9o7pwlU7mxlPLf1Kv4VNMSIB9xBXA9/hjJeet3LEJdLAXM/eiaAMJLgxmvTPww5I1LJvU3RpACbFJAcUq5f5M5RHwLRjJvsXXdal1E0T4di//t93clgDRYU1dlh/9GT9f9qyAFaDaW1IKDWdL9m4CWAPlY3ymAh/1+PD6KRCATwGKfeK3UAXmcM3Koni37mWEKWPIgFqze6/Dx0hIgH/eXgI+Pjqj9P8TEL5cB+4ysirKSN/yDFDANUsCCs5S5sQP3b/VSk5YAubDulb2xzLzvi3AFcNxnvhoZIG/4B0MWpQDk09wTd0n3bzL34lzLWSnF5/SxLPgPC7EKcIKdgMfrBQilvsd7/tYiSAFTUkCOgrSC+zf5rTAD51sn3VX1x4MsAX6lGDDajJ0nisHgq9Uw/DejJ0/sLkoBOISfrUcruX8T0BIgV5a81/Unx/H4XX7l9318yFL87/YMCH9p98nzWmeJPTDXqr1G5Y6WALkKrqI7+1wWWDz8g1xrkwKeL0c1t75CiZYAuTJuwQH3LS4LLBH+cuQm0TkhHMLZLKu6f5PvEVPVM0rt6qEDRvv7+rxoJEcOYX1Oc6UUntRJFnX6Jh3Z5pqBfbzkKnG+z9MHvrQKw98tFcWRZRCHcCpaa3D/JtFoCfAsQ5ZSXDaDviwwtPa45SdxHMJZo+pq9U8rtAR4TOkePwPWASuHfywF4BCOl+sNKEu0BHj8LJc+3TtYHTAy9or1u1/LN1riEA4IDv/XP1lvMK4/WSDZ5d+w3uuAX9/J8t26hn99uSThEJ6kfuoA8Gtz/6YnKmyr9w/1z23pKjv9l32Uh6ADfr/dx2Kt4R98w7RDePJ1+hzcQxm4f5dNyPUz7gdL8Pl1+on+WO2un9UAdMC7DHAJ/1rnKSvhEP5++xne/mA9h/+zlxa0BEg/1adT+FhX7PI9BB1QZAC/wfAP0nDkEDbD6f97eNvW4dVfDf27aQmQwc/p67P6fb+7Ox3w+9TL2jRaA0QT9bKRfTvn4hD+PH1Nhvc01uz+TX93WgJkpIC3L3kVYLWhEc+t7qcKix6uARoN/6AGDhzC/96+Buhaq9v9m4CWAJkTmz/5evtX9a7PawqZffW4cv1++6+FLXtv7v572w/PIezVd/j/j9xKS4A/1p3709tHxYEPdcBJUFH0ld1iLwKzecfO9+nLDQ1GQ6oCAvev3ei6h5YA2YjM+1/lwJUy4vfp9NnblasjF//7t/+aDn+xhvr2o95CA3IIB+7fTeMPOidXsyfvnf/zVk11cmTh+jPqdfiL2f/nrWFtfvJ1mvjyR1wcwsNIARutBT8pLQEyRYCwfJdSQJX49U5v//S+Vq3R/pzs5pt0BNUuM/xc8/DFHjiAzevA/du4E5qWAH+MfXRO+vNUfutZrP71vu6yXMLfuYRok9N/LL34fziE+zcHNeX+Ta9SMQMn2cU9gN/fpcP/c1TVTKB4+Fu3SbqxNcBXsgy7bDv2OgWsGzj8n51oxM+h+UpaGFnEJ51S81Y4KS56uM+6XqYDsOEqIDsF9LeHcOj+bUU8piVAVllU0SAtlq1h2eo7Wt+8llHrzuT8+9nuVme0BulpClhp7T02S8zACaSBp2LyjR1Zk0cKZ70L/+nLLz/ye9xGfB5c/dXSD6MlQPLJqvcov2/0SAe8hr9Kv43Rt542Dbt/k9UGKmBqQGrdfC3fVkg1PFVm/9tvNHfD3uM9slo17v5N/jxaAtxT+zHenuiAl/BXqer2L23E3Xlfmtvu6rz6Kxe0BEiWRDWPh6P1oPOiN1dWdAsdwq7di0MCbbh/0xMUZuDbg97A1Z7lLhdQiVm41FZUc/f74xCW04/b8ijbtASI0cilPka3hdYo/A2F5wmzH23EG+r9+2TsaAlwo5l23p3WAf2wyjYUXyZeHMId9l3OAvdv65UMLQFiNNTIr8QVw4R/4eTd8UMCTlvu3yQuLQHiJVgTY7Huqg4Y3tPXFbNNRhvxDi0+m+v9+3zWwwwcxqnb1FsgdcA14d84u846hNt0/6aVB1oCBDR4rXcHdcDuhX+wkO6mQ7hV928699ASIFiENajVBd+7SzJAuLveRZvtxSHcpRQQuH9ftUSkJUAbs/SyU6MchX9HD9pM7G45hCctu38TzGgJ0EKd3py+0MCa0NAMXcTPqLMW+8gh3I024u27f9MzHypg40p9UzsMTYS/SIXGttvPhB9KGK6tvAdTukReu0dESwBJ43v13bgsMLTVitWzte2yNGxtrz2EFW8j/gr3b/pXoCVA424939LUP3VhGm6wcpaZ0D93dlrwzqEdaKW+Q9hu9fD/n08mZuAW9umU1wFDR/2lcPbXW5mvZpbdtURgba8r6sghvFTUIRy6f19dpXjilxh6/LdxYs/TldYBw/B3Y7qZY+ws25jOO3HEZm6b0W/uxK2AvsoO4Ze5fxPog28J0E7vzvp7DdQY/tN0Yw3nrBvzrpyuseZT11hunNFsa95rOco6hC1XU2NKoCVAS117lNUBo5VyPPxnG0Nfbrv1XFibha4Z6UjfKdlGfKWpogoNviXARQH0Zw+oYYtAUR0wCn/79k+cmYaII29knrv3XhrnqTa91gOXxUzkEFZo9O0Xun/Tz/+wzcCXzr2zyQNm9bzpqumAlyL5bsPcnK6CT/1t12pD/yxjypxPk8HuKOYQXrZz9VfeCnjQLQFk736vlQSgng54Cf8/HsVN1w4DONvLMsZK/pPWoUNYifMN68D9q8yoiYGZDDf+bwpg4wmghluH2gx/8YKu1QDzRzO8p4pDeKdrSpXdw24JcFMAm08ASumAUfg/aqa53nbszdyuH2o1/iUFvHTv3dQUuzFuOeCWAH7sBt8WEsBOGR0w2h173EvX65hFbP3899283CEcHP5XSgwecksAX78txsIE4Bzfj+KDuT8cPrzJ5Hh4/yiWANbHw1HMQ7/78eFDfHoMP0TY4s331Qn/J/WIt+3WicBcJcuL24iHaqRqDLYlgB27vTNIAL+Hxa/8uD96H/+zdy9caSNhGMeHoFxFmqVcCgK26oabds+R4/f/aDu3TBIEWlREff+/nmPdCOkyJs9MZsLLvFvurspPs4MCQO/AnFbJcpU8RHVVnyWtZfbTRvX0V39JK/7bm+Q/2RvF/3LdMr1D+CTTMb0PGQBSlwEK9wCaAGjNbX9frs91DOihQHc1fJoNDwiAYfRg30j/FDWV0kOB+kzlA+AjzAN+zD7oTQ7j2mGPv6D1T9gSH0FhUs4EQDxzl/zxXH9ZzQ6/BIj92V6J9JfZbPMS4CN8WGCv9HUT4LCH87mYwtnuOMkHwHKlr/1XUxcAPg2mhwTAfDaLopU+z00AxLM/DDoYAdDv4UPMAPoAmK+e9LX/QyEADloFiFYt9aAvA1YmACqzP0w7ADhhV1irrduhXG9jVC/Pu2YCME4vAaaHB4BZ4FnGbgSw0gHQzt16Nq2v15Vuja4HOD2zKN+ddNfjtlsRGtVaZTsHuIzLD2YScLZ6wQjAXPDPYz0KaOkgWJn3p8d+0m+yHq+bk2n+1gMAp5LOAE67Y1MFq11p6U5/+eRO/uVsOpo/HT4CWM3NJcCTmQxQo8ie+qOeGQRM2+H9qDFFmIBTyy3ITUfj1kVtaG8Dms9nD+5GoOXoBXcClldRtDQn/NMymvvRvxkEtMZh5i85/TwgIJ25JacdVgDq1Vqjkc35v/WtwKPi21PbzAMCJ5UU3pzfiGvj1hHfC9CqhZkA+48zDwicVKE8zzReN+rj4SEB8N9BaTOuq1EvN+o/ehlyAPvk7wFsxBf6/O62DwmAn4f8Y3YpcJIfBDAPCJxQvkTvsLZ23XTzSAEwHLv3n+cGAa1TfyAUINg092GdrbRKVH19pAAIH7IzqYST/j0+igDAVvmP6QllpBrmRoAjBEBS2TaDWOMj2YDT2F6gu9HuHiUAtpepYB4QOJHtpfka+64BXhEA7e31n47+gcQAtjEzgFsKQjUm37ec+dPhKwMgWW+/8X/IPCBwAsPe9iqojVYluw1wGL68egQw3lF9zswDDvl1AO/r+676ML1aL6iGL97Gg38eUHBxz8+YBwTeWW1nAFR71WrP/fF/VcOmlwfA3nBgFgB4V0l7VwBUt/xJs6B0nABo8/sAPobG0W4FBkAAACAAAHzEyYHGHgkBAIAAAEAAAAQAAJH+owkAAAAAAAAAAAAAAAAAAAAAAAAAAAAAAAAAAAAAAAAAAAAA4Ks4j84+1X4BHOzybhBFN5OXnqj//oqcb/9kT+sQAMBn6eeNszcLgEsCAF91IPsFD93rQTTWo4Dqa17tgc1CAOAdz8GdT2Dw6gNg4b+9X0ZRtaPuZ7pNep301V7/iKL+WPfsP/q3j+4HYVuxWc6jxQ+dJva/0p3knnX56Mcaxf3iBEn6iQ/kIwaAyMGrboV+bF/1nW2MhW+WM/9qr1wb6VHCjyj9Qdi2GQDh/A47yZ6VfXe+bR9iLrZC3j47tDovDABZPdnbBQCDV9fv27OyYw6js87l4+LyoZnoMNAH07k7bfU5ej/49o/+rt/WGXnTybY9C4CF/6+wk+xZ14NvE73JB8uzfXx9aQJuDYDLLQFwFf2hdXYFwOWXD4DfeoB5c2uOXjOONB1YtsWNY7MR5saAMzyQwav327w6c4L2bbMkvx8H7mAyr/Z64I6t/q07Zc1BmW3bbMXwV9hJ/ln5AHi2DxEBcPY3B/fBASCrJ8sGmDcdP2p9vmWRG2EWB5zhgQxeixGwSA833wCvC4Cwk+xZvhUXBIDpoaPe9eCmo5tpYa69bnznX+iBztP2yfVltp/amKQR1pO5o0cfnve2/fSo9U63UnGLHsdmI8zigDN94L7BqxI3eNXNNk5HAFfmoLvKAiA9RfMBsHHaPg+AsJPsWf/+6g+i/iL8CgWd+psB4CcDtgdA6IHSAMj3ZeYHG5M00noy330sKx1/rCamFdMt6XGV62CK/U36wAMHr7dfdvB6Nbu18wALn6Zj/YonOvd8ANit6vIuvfJ3p3K6bU8A+J1kz7oKR2txv9LmAPxr14fR9gAIPZC/BCj0ZfrhSfaArQHw1Xsyl10Dm1yuhWwrFrbsCYD0gQxevXAV5b8b+9eXHl93aW+VtUe2bWcrhp0UYkNbphdlm/sQFAC237Kn/bYAyOZg3MG8cSjbK7bcJI24nsy/xKdH/T/uWtKvZNst2QigcIFaGHDaBzJ4TQ/Lu6U+Le1C4J1+ldWOicj+xa9wfJlZ1b7prXV7JP6gTLftbMWwk+czB4uN/cq7BHBteLf/EmB3ABQnacT1ZPYkvZkoP/DXo1Yz0ky3pOPY3AizOOBMH8jgtSB5j19cVXdePyKx9/7kAmDfCCCbg0kDYKO7Kk7SiOvJ3GsLEeinMcIWP47NjTCLA86rZ3dMMHh9r1+ctGn/XQGgD7GqsnMAZpObDcgHQDoH44Jioy9TqjhJI64ns9MX4Q1s5pvlQhW3mHFsNsLcGMgW3/vG4PX9jn9zSdrv3SrBARAOo6i4jp0PgGwOxnQ8/dvNx6iNSRp6sqOPX8UPXvGWY6CFXY4/swP/cEdA7j6AMAej7ge6F3/Wl21O0tCTMXjF53MXut7kPaZg6MleMXY7Fz54xVEDgJ4MIADoyQAAAAAAAAAAAAAAAAAAAAAAAAAAAAAAAAAAAAAAAAAAAAAAAAAAAAAAAAAAAAAAAAAAAAAAAAAAAAAAAAAAAAAAAAAAAAAAAAAAAAAAAAAAAIBPY1T7TiMAUpVKpXhKMwBiA6BUa9EOgNgAKFWbNAQgNgBKpS4tAcgMgGZVf2nTFIDIAFDDiv7KYgAgMwBUI9Z/VVgMAEQGgFIXLAYAcgNAjcxUYJ32AEQGgKr39LcjGgQQGQBqUtPfX9AigMgAcIsBcUKbABIDQKnvZjFgSKMAIgMgaXNfMCA2AJTqshgAyA2ApMliACA2AJRq2cUApgIBkQGgpnYxoEHTABIDwC0G1FgMAGQGgGIxABAcAG4xgCIhgMwAUBQJAQQHgGpRJASQGwAUCQEkBwBFQgDRAWCLhPS4LxiQGQCqzmIAIDcAVJMiIYDcAPBFQmgmQGQAKBVTJASQGwBuMYD7ggGZAcBiACA5AKgYDkgOAF8khMYCRAaALxJCmSBAZABQJAQQHQAUCQEkBwBFQgDJAUCREEByALjFAIqEADIDQCX2vmAqhgMiA8AvBlAkBJAZAO6+4CZ3BAAiAyChSAggNwDSxQDGAIDIAHBFQlgMAGQGgF8MKNN4gMQA8EVCJrQeIDIA7GJAiSIhgMwAoEgIIDkAKBICSA6ApEyREEBsACh3X3CF+4IBmQGQUCQEkBsAvkgIiwGAzABImj2KhABSA4AiIYDoAFANuxhAkRBAZABQJAQQHQBUDAckBwAVwwHJAUDFcEByAKghiwGA3ADwRUKmNCggMQB8kZAWbw4CRAaAqxjOfcGAzABQtmI4RUIAmQGgJhQJAeQGgKsYHtOqgMgAUIktEjKkXQGJAeAWA6pUDAdkBgBFQgDJAaDqVRYDALEBQMVwQHIAqClFQgC5AUDFcEB0AFAkBJAcABQJASQHAEVCAMkBQJEQQHIAUCQEkBwAKrmgYjggNgAoEgKIDgBXJITFAEBmAKgm9wUDcgPAFQlhMQCQGQB+MYAiIYDIAPAVwykSAsgMALsYQJEQQGgAqHqPIiGA2ACgSAggOQCSsi0SwieHARIDQLkiITUWAwCZAUCREEByAFAkBJAcABQJASQHgFsM4L5gQGYAqEZcKvUqVAwHRAaAXwygSAggMwDsYkCPxQBAZgBQJASQHAAsBgCSA4AiIYDkALCLAVQMB4QGAEVCANEBQMVwQHIAUCQEkBwAVAzH/+3dW08aURQG0NMR0gdbvNACNmC9oNNgrE38//+tw8wwQMUmbdEes9d6wEuYEwPZn+cybokcAEmTEAgcAM19wTqGQ9AA0CQEIgdA+VnHcAgbACkdjtwXDGEDoNQkBOIGQEpf68MATUIgZABoEgKhA8BhAEQOAE1CIHIAaBICkQMgfXEYAHEDIJWahEDcAGibhDgMgJgBoEkIRA6A5jBAkxCIGQDpXJMQiBsATcfwE28MhAyAlE40CYG4AdAcBrgvGGIGQNIkBAIHgI7hEDkA0keHARA3ADQJgcgB0DYJcRgAMQNAkxCIHADNYYAmIRAzADQJgcgBkHQMh5cNgLPLHX7k8uNpEgKvPgMoL/P5j72ahMBrLwEu8/kBy7pJiMMACBkAOoZD6ABwGACRA0CTEIgcAO1hwIG3CyIGgCYhEDoAdAyHyAGgSQhEDgBNQiByAJQH9WFA6U2DgAGQNAmB0AGgSQhEDgAdwyFyAKTDkfuCYY8BsMPlu8w5DICXC4DsjbxzsAef3mYAmAEAAAAAAAAAAAAAAAAAAAAAAAAAAAAAAAAAAAAAAAAAAAAAAAAA8OoGZ8VsD8P0i57XErLVL5auj5piHf42AG6visbx6bq+hwIA3ngAFMUiDZ4LgOmq4J8EwEAAwBsPgOtherhaPj5ZApS/BMBfVLQAgOwDoHmsi3XwWP+O7y0DoJodjIbNHGE8367ofrFYThHqr+6/FfUTB2fj+WP9WTdK+/SLs2qEmRcbcp0B9Jraruq+C4CuhncGQFff7cJg49q0eXFvOYWoSQDIdA+gmQb00sXk+DzdNDU8PhrU8bBrCdBf7hq0mfH9MFWXHJ+uL+lGWYVKVfv3k41RgIwC4Po0dQEwXwXArF3+7w6A7kP58DipNwbXl3SjtGM2IdPNIoCMlgBVhfbS1hJg8QcB0C4BNgOgG0UAQP57ADd1cTbVPJ4U40X6gwCYLi+ebgVAN0obAEofMg6A224TcLo6ttsKgI0C3hUAx+fVyn8zALpRVlOE3jANbq6HXm7IMACqx6rG1/P5u9lmACy/9/QUoPvQzvC3ZwDtKM3zbtYbjUB+AVAV8Wxrvb7YCIB0P6l+yT8bAGlaTfc/XG1vAq5uL2yed39XRUhP/UP2efA+pYd//UOg/YwCvHoA7GPDvm/bH96iQb+avY9H8xxGAQAAAAAAAAAAAAAAAAAAAAAAAAAAAAAAAAAAAAAAAAAAAAAAAAD4n34COj3w3NS4qiIAAAAASUVORK5CYII=;" vertex="1" parent="9">
                    <mxGeometry x="280" y="130.00000000000003" width="494" height="261.96" as="geometry"/>
                </mxCell>
                <mxCell id="21" value="" style="rounded=1;whiteSpace=wrap;html=1;fontSize=18;" vertex="1" parent="1">
                    <mxGeometry x="66" y="360" width="164" height="30" as="geometry"/>
                </mxCell>
            </root>
        </mxGraphModel>
    </diagram>
</mxfile>